<svg width="65" height="65" viewBox="0 0 65 65" fill="none" xmlns="http://www.w3.org/2000/svg">
<path d="M54.166 10.8337H45.5806L40.6244 5.41699H24.3743L19.4181 10.8337H10.8327C9.39609 10.8337 8.01834 11.4043 7.00252 12.4202C5.9867 13.436 5.41602 14.8137 5.41602 16.2503V48.7503C5.41602 50.1869 5.9867 51.5647 7.00252 52.5805C8.01834 53.5963 9.39609 54.167 10.8327 54.167H54.166C55.6026 54.167 56.9804 53.5963 57.9962 52.5805C59.012 51.5647 59.5827 50.1869 59.5827 48.7503V16.2503C59.5827 14.8137 59.012 13.436 57.9962 12.4202C56.9804 11.4043 55.6026 10.8337 54.166 10.8337ZM54.166 48.7503H10.8327V16.2503H21.8014L26.7577 10.8337H38.241L43.1973 16.2503H54.166V48.7503ZM32.4994 18.9587C28.9079 18.9587 25.4635 20.3854 22.9239 22.9249C20.3844 25.4645 18.9577 28.9089 18.9577 32.5003C18.9577 36.0918 20.3844 39.5362 22.9239 42.0757C25.4635 44.6153 28.9079 46.042 32.4994 46.042C36.0908 46.042 39.5352 44.6153 42.0748 42.0757C44.6143 39.5362 46.041 36.0918 46.041 32.5003C46.041 28.9089 44.6143 25.4645 42.0748 22.9249C39.5352 20.3854 36.0908 18.9587 32.4994 18.9587ZM32.4994 40.6253C30.3445 40.6253 28.2778 39.7693 26.7541 38.2456C25.2304 36.7218 24.3743 34.6552 24.3743 32.5003C24.3743 30.3454 25.2304 28.2788 26.7541 26.7551C28.2778 25.2313 30.3445 24.3753 32.4994 24.3753C34.6542 24.3753 36.7209 25.2313 38.2446 26.7551C39.7683 28.2788 40.6244 30.3454 40.6244 32.5003C40.6244 34.6552 39.7683 36.7218 38.2446 38.2456C36.7209 39.7693 34.6542 40.6253 32.4994 40.6253Z" fill="black"/>
</svg>
